<?xml version="1.0" standalone="no"?>
<!DOCTYPE svg PUBLIC "-//W3C//DTD SVG 20010904//EN"
 "http://www.w3.org/TR/2001/REC-SVG-20010904/DTD/svg10.dtd">
<svg version="1.0" xmlns="http://www.w3.org/2000/svg"
 width="700.000000pt" height="700.000000pt" viewBox="0 0 700.000000 700.000000"
 preserveAspectRatio="xMidYMid meet">
<metadata>
Created by potrace 1.11, written by Peter Selinger 2001-2013
</metadata>
<g transform="translate(0.000000,700.000000) scale(0.100000,-0.100000)"
fill="#000000" stroke="none">
<path d="M4325 5146 c-160 -32 -302 -102 -455 -222 -120 -94 -210 -205 -288
-353 l-50 -94 -17 29 c-146 239 -324 408 -550 519 -124 61 -201 88 -317 110
-93 17 -264 20 -357 4 -406 -65 -774 -455 -823 -871 -34 -290 78 -583 428
-1114 214 -325 432 -554 984 -1030 147 -127 529 -447 611 -511 13 -11 39 1
159 72 342 204 589 396 888 689 541 531 905 1110 983 1562 18 111 7 307 -25
429 -89 333 -326 606 -628 726 -152 60 -394 84 -543 55z"/>
</g>
</svg>
