<svg id="Layer_1" data-name="Layer 1" xmlns="http://www.w3.org/2000/svg" viewBox="0 0 931.92 101.55"><defs><style>.cls-1{fill:#231f20;}.cls-2{fill:#136b42;}</style></defs><title>AvoinMapLogoColor</title><path class="cls-1" d="M845.5,21.86h0A4.16,4.16,0,0,1,849.66,26V82.21a4.19,4.19,0,0,1-4.19,4.19h0a4,4,0,0,1-4-4V75.71a.13.13,0,0,0-.24-.08c-7,8.31-15.8,12.35-25.77,12.35-18.85,0-33.07-15.68-33.07-34S797,20.16,815.75,20.16c10.16,0,18.83,4.25,25.23,12.75a.29.29,0,0,0,.54-.16V26.41C841.52,23.64,843.3,21.86,845.5,21.86ZM791,54.19c0,14,10.94,26.26,25.41,26.26,13.24,0,25.77-10,25.77-26,0-15-11.19-26.26-25.65-26.26C801.65,28.18,791,40.34,791,54.19Z" transform="translate(-16.08 -7.06)"/><path class="cls-1" d="M888.93,32.27c6.44-9,15.31-13.49,25.64-13.49A33.57,33.57,0,0,1,948,52.57c0,18.36-14.22,34-33.18,34-10.09,0-18.84-4.14-25.89-12.65v30.52a4.13,4.13,0,0,1-4.14,4.13h0a4.13,4.13,0,0,1-4.13-4.13V24.62a4.13,4.13,0,0,1,4.13-4.14h0a4.14,4.14,0,0,1,4.14,4.14Zm-.61,20.79c0,16,12.4,26,25.65,26,14.34,0,25.52-12.15,25.52-26.26,0-13.85-10.69-26-25.52-26C899.5,26.8,888.32,38.11,888.32,53.06Z" transform="translate(-16.08 -7.06)"/><path class="cls-1" d="M698.43,57.5V49.24C698.05,31.08,683.2,19.78,665,19.78c-10,0-18.89,3.37-25,9.37V27.21A4.34,4.34,0,0,0,636,22.84a4.24,4.24,0,0,0-4.51,4.22V82.52h0v.08a4.14,4.14,0,0,0,4.15,4.14h.17a4.14,4.14,0,0,0,4.14-4.14c0-6.31,0-18.31,0-25.11,0-3,0-8.27,0-8.33.42-13.44,11.47-20.93,25-20.93s24.59,7.49,25,20.92c0,.07,0,5.39,0,8.42v25a4.14,4.14,0,0,0,4.15,4.14h.17a4.14,4.14,0,0,0,4.14-4.14Z" transform="translate(-16.08 -7.06)"/><path class="cls-1" d="M757,57.5c0-2.94,0-8.2,0-8.26-.38-18.16-15.22-29.46-33.47-29.46-10,0-18.9,3.37-25,9.37L696,31.89c-1.7,1.92-2,2.07-3.91-.29-1.53-1.94-2.1-2.16-2.1.27V82.52h0v.08a4.14,4.14,0,0,0,4.15,4.14h.16a4.14,4.14,0,0,0,4.15-4.14c0-6.31,0-18.31,0-25.11V49.17c.42-13.44,11.48-20.93,25-20.93s24.59,7.49,25,20.92v8.42c0,6.81,0,18.74,0,25a4.14,4.14,0,0,0,4.15,4.14h.16A4.14,4.14,0,0,0,757,82.61Z" transform="translate(-16.08 -7.06)"/><path class="cls-2" d="M130.11,42.6c5.23-29.77-24.8-50.21-55.05-22.32a2.45,2.45,0,0,1-3.33,0c-34-31.39-67.81-1.55-51.35,33.89a1.58,1.58,0,0,0,2.24.7C39.86,44.6,57.93,37.79,75.39,35.15c20.73-3.12,38.77-.11,52.34,8.5A1.57,1.57,0,0,0,130.11,42.6Z" transform="translate(-16.08 -7.06)"/><path class="cls-2" d="M36.16,75.32c14.69,16,32.43,25.58,37.39,25.58s28.08-14.81,42.86-31.66a64.68,64.68,0,0,0,9.37-13.77,1.58,1.58,0,0,0-.52-2c-9.45-6.77-24.85-9.63-34.57-10.11C61.52,42,26.23,64.54,36.16,75.32Z" transform="translate(-16.08 -7.06)"/><path class="cls-1" d="M242,20.43h-.22a4.13,4.13,0,0,0-4.13,4.13V31.7a33.55,33.55,0,1,0,0,44.56V83.4a4.13,4.13,0,0,0,4.13,4.13H242a4.13,4.13,0,0,0,4.13-4.13V24.56A4.13,4.13,0,0,0,242,20.43ZM212.54,79.05A25.08,25.08,0,1,1,237.61,54,25.1,25.1,0,0,1,212.54,79.05Z" transform="translate(-16.08 -7.06)"/><path class="cls-1" d="M428.85,54A33.55,33.55,0,1,1,395.3,20.43,33.55,33.55,0,0,1,428.85,54Zm-8.48,0A25.07,25.07,0,1,0,395.3,79.05,25.1,25.1,0,0,0,420.37,54Z" transform="translate(-16.08 -7.06)"/><rect class="cls-1" x="443.7" y="31.93" width="8.48" height="48.79" rx="2.09"/><circle class="cls-1" cx="447.93" cy="17.86" r="4.74"/><path class="cls-1" d="M338.61,20.91l-.2-.09a4.13,4.13,0,0,0-5.52,1.9L308,73.77l-24.9-51a4.13,4.13,0,0,0-5.52-1.9l-.19.09a4.14,4.14,0,0,0-1.91,5.52l28.69,58.81a4.34,4.34,0,0,0,7.67,0l28.68-58.81A4.13,4.13,0,0,0,338.61,20.91Z" transform="translate(-16.08 -7.06)"/><path class="cls-1" d="M570.88,58.22V50c-.38-18.2-15.25-29.52-33.54-29.52-10,0-18.93,3.37-25.08,9.39V27.87a4.32,4.32,0,0,0-3.95-4.37,4.23,4.23,0,0,0-4.52,4.22V83.29h0v.07a4.15,4.15,0,0,0,4.15,4.16h.17a4.15,4.15,0,0,0,4.15-4.16c0-6.32,0-18.34,0-25.15,0-3,0-8.29,0-8.35.42-13.46,11.5-21,25.06-21s24.63,7.51,25.06,21V58.3c0,6.82,0,18.78,0,25.07a4.15,4.15,0,0,0,4.15,4.16h.17a4.15,4.15,0,0,0,4.15-4.16Z" transform="translate(-16.08 -7.06)"/></svg>