<?xml version="1.0" standalone="no"?>
<!DOCTYPE svg PUBLIC "-//W3C//DTD SVG 20010904//EN"
 "http://www.w3.org/TR/2001/REC-SVG-20010904/DTD/svg10.dtd">
<svg version="1.0" xmlns="http://www.w3.org/2000/svg"
 width="512.000000pt" height="512.000000pt" viewBox="0 0 512.000000 512.000000"
 preserveAspectRatio="xMidYMid meet">
<metadata>
Created by potrace 1.11, written by Peter Selinger 2001-2013
</metadata>
<g transform="translate(0.000000,512.000000) scale(0.100000,-0.100000)"
fill="#000000" stroke="none">
<path d="M1100 4454 c-407 -62 -697 -268 -874 -622 -92 -184 -130 -360 -130
-602 0 -253 45 -473 143 -700 42 -97 60 -120 94 -120 10 0 91 41 179 91 811
460 1663 737 2463 800 187 15 596 6 755 -16 414 -57 776 -178 1075 -359 66
-40 104 -45 128 -18 45 50 56 419 18 599 -65 311 -213 558 -434 727 -336 256
-778 295 -1231 110 -189 -77 -354 -178 -536 -326 -56 -46 -119 -98 -141 -115
-49 -40 -93 -43 -137 -10 -17 12 -74 59 -128 105 -286 242 -614 401 -922 447
-88 14 -259 18 -322 9z"/>
<path d="M2858 2894 c-651 -75 -1378 -391 -1762 -767 -93 -91 -175 -210 -202
-290 -25 -75 -23 -162 6 -222 40 -82 358 -391 615 -596 356 -284 788 -529 997
-564 160 -26 766 350 1303 810 368 314 665 644 841 930 141 231 143 247 40
316 -279 187 -781 340 -1275 389 -139 14 -419 11 -563 -6z"/>
</g>
</svg>
