<svg width="29.9" height="29.9" xmlns="http://www.w3.org/2000/svg">
 <defs>
  <style>.cls-1{fill:#fff;}</style>
 </defs>
 <title>ButtonHeartHole</title>
 <g>
  <title>background</title>
  <rect fill="none" id="canvas_background" height="402" width="582" y="-1" x="-1"/>
 </g>
 <g>
  <title>Layer 1</title>
  <rect id="svg_2" height="18.308421" width="20.89548" y="5.937269" x="4.800767" stroke-opacity="null" stroke-width="null" stroke="null" fill="rgb(11,103,57)"/>
  <path id="svg_1" d="m29.95,14.95a15,15 0 1 1 -15,-14.95a14.95,14.95 0 0 1 15,14.95zm-17.62,-6.68a4.49,4.49 0 0 0 -3,-0.23a4.5,4.5 0 0 0 -3,3.21c-0.38,1.7 0.51,3.21 1.53,4.82s1.6,2.47 7.11,7l0,0a20.11,20.11 0 0 0 7.36,-6.92c1.32,-2.2 1.41,-3.49 1.25,-4.44a4.73,4.73 0 0 0 -2.07,-3.21a4.38,4.38 0 0 0 -3.21,-0.55a4.75,4.75 0 0 0 -3.21,2.84a5.47,5.47 0 0 0 -2.76,-2.52z" class="cls-1"/>
 </g>
</svg>
