<?xml version="1.0" encoding="utf-8"?>
<!-- Generator: Adobe Illustrator 23.0.4, SVG Export Plug-In . SVG Version: 6.00 Build 0)  -->
<svg version="1.1" id="Green" xmlns="http://www.w3.org/2000/svg" xmlns:xlink="http://www.w3.org/1999/xlink" x="0px" y="0px"
	 viewBox="0 0 368.5 141.7" style="enable-background:new 0 0 368.5 141.7;" xml:space="preserve">
<style type="text/css">
	.st0{clip-path:url(#SVGID_2_);}
	.st1{fill:#126A42;}
	.st2{clip-path:url(#SVGID_4_);}
</style>
<g>
	<g>
		<defs>
			<rect id="SVGID_1_" width="368.5" height="141.7"/>
		</defs>
		<clipPath id="SVGID_2_">
			<use xlink:href="#SVGID_1_"  style="overflow:visible;"/>
		</clipPath>
		<g class="st0">
			<path class="st1" d="M103.6,65.2c2.6-14.7-12.2-24.8-27.2-11c-0.5,0.4-1.2,0.4-1.6,0C58,38.7,41.3,53.5,49.5,71
				c0.2,0.4,0.7,0.6,1.1,0.3c8.5-5.1,17.4-8.4,26-9.7c10.2-1.5,19.1-0.1,25.8,4.2C102.9,66.1,103.5,65.8,103.6,65.2z"/>
			<path class="st1" d="M57.2,81.4c7.3,7.9,16,12.6,18.5,12.6s13.9-7.3,21.2-15.6c2-2.3,3.5-4.6,4.6-6.8c0.2-0.3,0.1-0.8-0.3-1
				c-4.7-3.3-12.3-4.8-17.1-5C69.8,64.9,52.3,76.1,57.2,81.4z"/>
		</g>
	</g>
	<g>
		<defs>
			<rect id="SVGID_3_" width="368.5" height="141.7"/>
		</defs>
		<clipPath id="SVGID_4_">
			<use xlink:href="#SVGID_3_"  style="overflow:visible;"/>
		</clipPath>
		<g class="st2">
			<path d="M158.8,54.3h-0.1c-1.1,0-2,0.9-2,2v3.5c-3-3.4-7.4-5.6-12.4-5.6c-9.1,0-16.6,7.4-16.6,16.6s7.4,16.6,16.6,16.6
				c4.9,0,9.3-2.2,12.4-5.6v3.5c0,1.1,0.9,2,2,2h0.1c1.1,0,2-0.9,2-2v-29C160.9,55.2,159.9,54.3,158.8,54.3z M144.3,83.2
				c-6.8,0-12.4-5.6-12.4-12.4c0-6.8,5.6-12.4,12.4-12.4c6.8,0,12.4,5.5,12.4,12.4C156.7,77.7,151.1,83.2,144.3,83.2z"/>
			<path d="M251.1,70.9c0,9.2-7.4,16.6-16.6,16.6S218,80,218,70.9s7.4-16.6,16.6-16.6C243.6,54.3,251.1,61.7,251.1,70.9z
				 M246.9,70.9c0-6.8-5.6-12.4-12.4-12.4s-12.4,5.5-12.4,12.4s5.6,12.4,12.4,12.4S246.9,77.7,246.9,70.9z"/>
			<g>
				<path d="M268.4,87.5L268.4,87.5c-1.2,0-2.1-0.9-2.1-2.1V65.6c0-1.2,0.9-2.1,2.1-2.1l0,0c1.2,0,2.1,0.9,2.1,2.1v19.9
					C270.5,86.6,269.6,87.5,268.4,87.5z"/>
				<circle cx="268.4" cy="56.5" r="2.3"/>
			</g>
			<path d="M206.5,54.5l-0.1,0c-1-0.5-2.2-0.1-2.7,0.9l-12.3,25.2l-12.3-25.2c-0.5-1-1.7-1.4-2.7-0.9l-0.1,0c-1,0.5-1.4,1.7-0.9,2.7
				l14.2,29c0.4,0.7,1.1,1.2,1.9,1.1c0.8,0,1.5-0.4,1.9-1.1l14.2-29C208,56.2,207.5,55,206.5,54.5z"/>
			<path d="M321.2,72.9c0-1.4,0-4.1,0-4.1c-0.2-9-7.5-14.6-16.6-14.6c-4.9,0-9.3,1.7-12.4,4.6v-1c0-1.1-0.8-2.1-2-2.2
				c-1.2-0.1-2.2,0.9-2.2,2.1v27.4l0,0c0,0,0,0,0,0c0,1.1,0.9,2.1,2,2.1h0l0,0l0,0h0c1.1,0,2-0.9,2-2.1c0-3.1,0-9.1,0-12.4
				c0-1.5,0-4.1,0-4.1c0.2-6.6,5.7-10.3,12.4-10.3s12.2,3.7,12.4,10.3c0,0,0,2.7,0,4.2c0,3.4,0,9.3,0,12.4c0,1.1,0.9,2.1,2,2.1h0.1
				c1.1,0,2-0.9,2-2.1C321.2,82.2,321.2,76.3,321.2,72.9z"/>
		</g>
	</g>
</g>
</svg>
